<svg xmlns="http://www.w3.org/2000/svg" viewBox="0 0 64 64"><defs>
  <radialGradient id="bg" cx="30%" cy="22%" r="95%"><stop offset="0" stop-color="#34302a"/><stop offset=".55" stop-color="#1d1c1a"/><stop offset="1" stop-color="#121211"/></radialGradient>
  <linearGradient id="gloss" x1="0" y1="0" x2="1" y2="1"><stop offset="0" stop-color="#fff" stop-opacity=".9"/><stop offset="1" stop-color="#fff" stop-opacity="0"/></linearGradient>
  <filter id="drop" x="-20%" y="-20%" width="140%" height="150%"><feDropShadow dx="0" dy="2.2" stdDeviation="1.6" flood-color="#000" flood-opacity=".55"/></filter>
</defs><rect width="64" height="64" rx="15" fill="url(#bg)"/><g transform="translate(32 32) scale(1) translate(-32 -32)">
  <g filter="url(#drop)">
    <polygon points="32.00,9.00 38.23,24.92 55.30,25.93 42.08,36.78 46.40,53.32 32.00,44.10 17.60,53.32 21.92,36.78 8.70,25.93 25.77,24.92" fill="#c98a12"/>
    <polygon points="32.00,33.50 25.77,24.92 32.00,9.00" fill="rgb(255,226,128)"/><polygon points="32.00,33.50 32.00,9.00 38.23,24.92" fill="rgb(244,211,115)"/><polygon points="32.00,33.50 38.23,24.92 55.30,25.93" fill="rgb(198,150,62)"/><polygon points="32.00,33.50 55.30,25.93 42.08,36.78" fill="rgb(177,122,39)"/><polygon points="32.00,33.50 42.08,36.78 46.40,53.32" fill="rgb(150,86,8)"/><polygon points="32.00,33.50 46.40,53.32 32.00,44.10" fill="rgb(150,86,8)"/><polygon points="32.00,33.50 32.00,44.10 17.60,53.32" fill="rgb(173,116,34)"/><polygon points="32.00,33.50 17.60,53.32 21.92,36.78" fill="rgb(193,143,57)"/><polygon points="32.00,33.50 21.92,36.78 8.70,25.93" fill="rgb(240,206,111)"/><polygon points="32.00,33.50 8.70,25.93 25.77,24.92" fill="rgb(253,224,126)"/>
    <polygon points="32.00,9.00 38.23,24.92 55.30,25.93 42.08,36.78 46.40,53.32 32.00,44.10 17.60,53.32 21.92,36.78 8.70,25.93 25.77,24.92" fill="none" stroke="#fff3c4" stroke-opacity=".55" stroke-width=".9" stroke-linejoin="round"/>
    <polygon points="32.00,9.00 25.77,24.92 32.00,33.50" fill="url(#gloss)" opacity=".7"/>
  </g></g></svg>